# xmcd CD database file
#
# Track frame offsets:
#	150
#	11884
#	25559
#	35394
#	49337
#	61179
#	74878
#	88919
#	100211
#	122239
#	143851
#	169386
#	192791
#	212723
#	230358
#	250132
#	265173
#	278271
#
# Disc length: 4003 seconds
#
# Revision: 2
# Processed by: cddbd v1.5.2PL0 Copyright (c) Steve Scherf et al.
# Submitted via: CDex 1.51
#
DISCID=050fa112
DTITLE=Charlie Parker - Parker's Mood
DYEAR=2003
DGENRE=Jazz
TTITLE0=Barbados  (take 4)
TTITLE1=Ah-Leu-Cha
TTITLE2=Constellation  (take 3)
TTITLE3=Parker's Mood  (take 5)
TTITLE4=Perhaps  (take 7)
TTITLE5=Marmaduke  (take 8)
TTITLE6=Steeplechase
TTITLE7=Merry Go Round
TTITLE8=Groovin' High
TTITLE9=Big Foot
TTITLE10=Ornithology
TTITLE11=On A Slow Boat To China
TTITLE12=Hot House
TTITLE13=Salt Peanuits
TTITLE14=Chasin' The Bird
TTITLE15=Out Of Nowhere
TTITLE16=How High The Moon
TTITLE17=White Christmas
EXTD=YEAR: 2003
EXTT0=
EXTT1=
EXTT2=
EXTT3=
EXTT4=
EXTT5=
EXTT6=
EXTT7=
EXTT8=
EXTT9=
EXTT10=
EXTT11=
EXTT12=
EXTT13=
EXTT14=
EXTT15=
EXTT16=
EXTT17=
PLAYORDER=
